<?xml version="1.0" encoding="UTF-8" standalone="no"?>
<!-- Created with Inkscape (http://www.inkscape.org/) -->

<svg
   width="359.56876mm"
   height="158.48541mm"
   viewBox="0 0 359.56876 158.48541"
   version="1.1"
   id="svg1"
   xml:space="preserve"
   inkscape:version="1.4.2 (f4327f4, 2025-05-13)"
   sodipodi:docname="solution.svg"
   inkscape:export-filename="solution.png"
   inkscape:export-xdpi="96"
   inkscape:export-ydpi="96"
   xmlns:inkscape="http://www.inkscape.org/namespaces/inkscape"
   xmlns:sodipodi="http://sodipodi.sourceforge.net/DTD/sodipodi-0.dtd"
   xmlns="http://www.w3.org/2000/svg"
   xmlns:svg="http://www.w3.org/2000/svg"><sodipodi:namedview
     id="namedview1"
     pagecolor="#ffffff"
     bordercolor="#000000"
     borderopacity="0.25"
     inkscape:showpageshadow="2"
     inkscape:pageopacity="0.0"
     inkscape:pagecheckerboard="0"
     inkscape:deskcolor="#d1d1d1"
     inkscape:document-units="mm"
     inkscape:zoom="0.71891835"
     inkscape:cx="680.18851"
     inkscape:cy="299.75588"
     inkscape:window-width="1920"
     inkscape:window-height="1129"
     inkscape:window-x="1912"
     inkscape:window-y="-8"
     inkscape:window-maximized="1"
     inkscape:current-layer="svg1" /><defs
     id="defs1" /><path
     style="fill:#000000"
     d="m 57.502776,140.4023 c -0.04851,-0.12306 -1.27882,-0.91258 -2.734028,-1.75448 -1.455208,-0.84191 -4.167952,-2.41261 -6.028319,-3.49045 -1.860367,-1.07784 -3.47614,-1.90183 -3.590607,-1.83108 -0.114467,0.0707 -0.357533,-3.46595 -0.540147,-7.85931 -0.182613,-4.39337 -0.352777,-8.00305 -0.378142,-8.02152 -0.365724,-0.26632 -9.690687,-5.51735 -10.729964,-6.04221 -0.799637,-0.40384 -1.656142,-0.65801 -1.954456,-0.58 -0.524511,0.13716 -0.529772,0.0425 -0.428655,-7.71132 l 0.102373,-7.850178 -3.836459,-2.313869 c -4.407158,-2.658073 -8.550028,-5.362804 -8.94709,-5.841234 -0.169845,-0.204651 -0.296755,-3.240662 -0.336854,-8.05841 l -0.06434,-7.730048 0.639246,-0.494328 c 0.351585,-0.27188 2.722839,-1.717958 5.269454,-3.213506 2.546615,-1.495548 5.192516,-3.072292 5.879781,-3.503876 l 1.249572,-0.784697 -0.167845,-8.054931 c -0.15092,-7.242668 -0.1261,-8.038911 0.24613,-7.896073 0.499381,0.19163 1.432873,-0.271626 7.026333,-3.486897 2.371652,-1.36329 4.777913,-2.716351 5.347246,-3.006803 l 1.03515,-0.528094 -0.164765,-7.982336 c -0.153757,-7.449086 -0.13466,-7.970785 0.285863,-7.809415 0.302688,0.116152 2.336367,-0.919025 6.194603,-3.153157 3.159186,-1.829344 6.066575,-3.553863 6.460865,-3.832266 0.908952,-0.641797 1.628679,-0.640824 2.534969,0.0034 0.39429,0.280288 3.177229,1.992254 6.18431,3.804369 l 5.467421,3.294754 1.147163,-0.65515 c 1.748069,-0.99833 9.778817,-5.412546 10.625484,-5.84045 0.410889,-0.207662 0.810581,-0.543071 0.888204,-0.745353 0.180561,-0.470535 1.9366,-0.500664 1.9366,-0.03323 0,0.184007 1.568304,1.282351 3.48512,2.440766 1.916816,1.158414 4.544766,2.785656 5.839888,3.616091 l 2.354769,1.509884 1.237716,-0.735441 c 2.922694,-1.736642 6.449164,-3.897604 8.931734,-5.473226 1.83352,-1.163683 2.92906,-1.692632 3.50573,-1.692632 0.46134,0 0.83879,0.09537 0.83879,0.211941 0,0.192738 1.56146,1.13361 5.15938,3.108833 0.7276,0.399448 2.64506,1.482559 4.26101,2.406914 1.61595,0.924355 3.09202,1.680645 3.28015,1.680645 0.18814,0 1.7235,-0.848459 3.41191,-1.885463 1.68842,-1.037005 4.40639,-2.70388 6.03995,-3.704167 1.63356,-1.000287 3.19897,-1.818703 3.47869,-1.818703 0.27972,0 1.26489,0.456372 2.18927,1.01416 0.92438,0.557788 2.51412,1.465235 3.53277,2.016549 1.01865,0.551313 3.15233,1.78166 4.74152,2.734103 1.58919,0.952443 3.01794,1.730436 3.175,1.728873 0.15706,-0.0016 1.98961,-0.973907 4.07233,-2.160764 2.08272,-1.186857 3.83467,-2.157921 3.89322,-2.157921 0.4351,0 4.09397,-2.500579 4.09397,-2.797941 0,-0.254536 0.30091,-0.377059 0.92604,-0.377059 0.58878,0 0.92604,0.126693 0.92604,0.347871 0,0.191329 0.38696,0.543693 0.8599,0.783033 1.46838,0.743096 4.42679,2.400082 7.81799,4.378803 1.78966,1.044244 3.49768,1.898626 3.79561,1.898626 0.29793,0 0.85773,-0.219563 1.24399,-0.487917 0.38627,-0.268355 3.00379,-1.771736 5.81672,-3.340848 2.81292,-1.569112 5.17714,-3.016424 5.25382,-3.21625 0.15363,-0.400352 1.93489,-0.515138 1.93489,-0.124686 0,0.131248 1.80667,1.28208 4.01482,2.557404 2.20815,1.275324 4.85182,2.834814 5.87481,3.465534 1.023,0.630719 1.9467,1.146763 2.05268,1.146763 0.19705,0 9.18019,-4.895093 11.95051,-6.512075 1.56898,-0.915782 3.09468,-1.186002 3.09468,-0.548104 0,0.191485 0.50602,0.630726 1.12448,0.976092 1.31031,0.731709 4.51326,2.65784 8.29274,4.986935 l 2.67034,1.645591 3.0182,-1.898783 c 9.74432,-6.130258 10.89476,-6.667434 11.83933,-5.528155 0.24161,0.291408 2.64194,1.705519 5.33408,3.142468 2.69214,1.436949 5.38385,2.888747 5.9816,3.226218 l 1.0868,0.613583 1.29445,-0.924213 c 1.51097,-1.078812 6.64341,-4.273503 9.06063,-5.639795 2.53041,-1.430272 3.04326,-1.349461 7.09628,1.118173 1.86658,1.136447 4.55037,2.803322 5.96397,3.704166 2.68901,1.713616 3.19315,1.872215 4.05167,1.27462 1.6904,-1.176653 12.13249,-7.045054 12.5358,-7.045054 0.4821,0 3.98227,1.895983 9.84081,5.3306 1.68812,0.989671 3.2649,1.874458 3.50395,1.966192 0.27222,0.104458 1.74543,-0.553387 3.94216,-1.760322 1.92913,-1.05991 3.86469,-2.123435 4.30126,-2.363388 0.43656,-0.239952 1.65695,-0.888213 2.71197,-1.440578 1.05503,-0.552366 1.91823,-1.168147 1.91823,-1.368403 0,-0.228168 0.29634,-0.364101 0.79375,-0.364101 0.43657,0 0.79375,0.09866 0.79375,0.219252 0,0.120589 2.85405,1.919933 6.34233,3.998542 3.48828,2.078609 6.47426,3.93825 6.6355,4.132536 0.19999,0.240975 0.29047,2.775265 0.28469,7.973853 l -0.008,7.620608 -0.60775,0.486713 c -0.33426,0.267692 -3.22712,2.035729 -6.42858,3.92897 -3.20146,1.893241 -6.01221,3.638751 -6.24611,3.878911 -0.3812,0.391399 -0.40001,1.122215 -0.18144,7.051239 0.16413,4.452252 0.3464,6.716346 0.55757,6.925876 0.17255,0.171211 1.50436,0.991856 2.95957,1.823657 1.4552,0.8318 4.26415,2.509615 6.24209,3.728476 l 3.59626,2.216111 0.17405,5.197049 c 0.23987,7.162217 0.21832,9.826537 -0.0841,10.391537 -0.14197,0.265261 -3.17806,2.229875 -6.74688,4.365808 l -6.48876,3.883515 0,7.10675 0,7.10676 1.52136,0.86058 c 6.27442,3.54925 10.60815,6.17917 11.1125,6.74361 0.58862,0.65875 0.59531,0.75327 0.59531,8.40868 v 7.74244 l -3.1723,1.78168 c -1.74476,0.97992 -4.74024,2.72793 -6.65662,3.88447 -2.71106,1.63612 -3.70498,2.10279 -4.47857,2.10279 -0.54684,0 -1.03393,-0.1022 -1.08244,-0.2271 -0.12424,-0.31992 -4.44809,-2.95928 -8.80695,-5.37592 l -3.69167,-2.04674 -0.80625,0.49693 c -0.44343,0.27331 -3.12796,1.82198 -5.96562,3.44149 -2.83765,1.6195 -5.29156,3.11708 -5.45312,3.32795 -0.31577,0.41213 -1.95521,0.53739 -1.95521,0.14938 0,-0.23687 -10.97517,-6.60139 -12.04653,-6.9858 -0.45747,-0.16415 -1.47268,0.28942 -4.78427,2.13749 -2.31196,1.29021 -5.18454,2.96155 -6.38349,3.71408 -2.34611,1.47255 -2.98856,1.62687 -3.76426,0.9042 -0.27395,-0.25522 -3.13319,-1.98015 -6.35387,-3.83316 l -5.85577,-3.36912 -4.15226,2.42503 c -3.97071,2.31901 -6.22083,3.69398 -7.77957,4.75384 -0.73757,0.50152 -1.94894,0.65632 -2.10533,0.26905 -0.0485,-0.12012 -1.10022,-0.76528 -2.33715,-1.43369 -1.23693,-0.66841 -4.0349,-2.23046 -6.21771,-3.47122 l -3.96875,-2.25593 -1.5875,0.89218 c -0.87312,0.4907 -3.45956,1.94267 -5.74763,3.2266 -2.28807,1.28393 -4.40279,2.54278 -4.69937,2.79744 -0.57848,0.4967 -1.98793,0.62733 -2.24693,0.20825 -0.18033,-0.29177 -3.64599,-2.35739 -8.96903,-5.34576 l -3.67129,-2.06107 -1.75267,0.96958 c -0.96396,0.53328 -3.85891,2.25714 -6.43321,3.8308 -4.51461,2.75978 -5.74904,3.26417 -6.44518,2.63351 -0.13825,-0.12524 -1.32292,-0.79708 -2.63261,-1.49297 -1.30968,-0.6959 -3.97494,-2.26031 -5.92279,-3.47646 -1.94785,-1.21616 -3.61567,-2.21119 -3.70627,-2.21119 -0.31353,0 -2.82807,1.40878 -7.8573,4.40209 -2.77802,1.65343 -5.29719,3.00624 -5.59816,3.00624 -0.46508,0 -7.60341,-4.04048 -11.43167,-6.47061 -1.0082,-0.64 -1.28546,-0.70793 -1.91681,-0.46962 -0.67006,0.25292 -8.04855,4.3566 -11.12983,6.19005 -0.69341,0.4126 -1.6278,0.75018 -2.07642,0.75018 -0.80932,0 -3.06423,-1.27099 -7.41302,-4.1784 -1.07239,-0.71695 -2.76226,-1.79446 -3.75526,-2.39446 l -1.80545,-1.0909 -1.02822,0.52456 c -0.56553,0.28851 -2.67011,1.49434 -4.67685,2.67963 -2.00674,1.1853 -4.21889,2.47258 -4.91588,2.86064 -0.697,0.38806 -1.50204,0.90657 -1.78897,1.15224 -0.67931,0.58165 -1.42401,0.56548 -2.31229,-0.0502 -0.39429,-0.27328 -1.96705,-1.20814 -3.49502,-2.07745 -1.52797,-0.86931 -3.96875,-2.31023 -5.42395,-3.20204 -1.455213,-0.89182 -2.825379,-1.62384 -3.044818,-1.62672 -0.219439,-0.003 -0.993346,0.30647 -1.719792,0.68745 -1.680574,0.88135 -9.915463,5.88155 -10.46977,6.35721 -0.22974,0.19714 -0.659818,0.35844 -0.955729,0.35844 -0.295911,0 -3.41612,-1.72641 -6.933797,-3.83646 -3.517676,-2.11005 -6.448238,-3.83646 -6.51236,-3.83646 -0.06412,0 -2.232819,1.20947 -4.819328,2.68771 -2.58651,1.47824 -5.238526,2.97792 -5.89337,3.33263 -0.654843,0.35471 -1.388303,0.87165 -1.62991,1.14876 -0.44238,0.50737 -1.689881,0.69585 -1.85377,0.28008 z m 85.602244,-4.36883 c 8.94531,-5.0961 8.4314,-4.91732 10.46244,-3.63978 0.66758,0.41991 3.11879,1.84725 5.44712,3.17186 2.32834,1.32461 4.546,2.60701 4.92813,2.84977 0.65839,0.41826 0.73465,0.41316 1.45521,-0.0974 0.41823,-0.29631 3.06077,-1.86274 5.87232,-3.48096 4.79874,-2.76195 5.20031,-2.9422 6.55479,-2.9422 1.51363,0 2.74554,0.62464 10.78384,5.46793 1.28821,0.77618 2.43024,1.41124 2.53786,1.41124 0.31671,0 12.56385,-7.20886 12.77682,-7.52064 0.10692,-0.15652 0.19621,-3.21212 0.19844,-6.79024 l 0.004,-6.50566 -4.03489,-2.39452 c -9.04662,-5.36875 -8.69411,-5.21458 -9.94718,-4.35048 -0.9405,0.64855 -7.07674,4.36101 -9.07686,5.49154 -1.60528,0.90736 -3.50214,1.21439 -4.07409,0.65945 -0.24166,-0.23448 -3.40531,-2.03215 -9.4553,-5.37275 -2.30895,-1.27494 -2.92715,-1.5151 -3.23733,-1.25767 -0.33317,0.27651 -0.39256,-0.76739 -0.45335,-7.96924 l -0.07,-8.287425 -0.79375,-0.398781 c -0.43656,-0.21933 -1.56765,-0.834557 -2.51354,-1.367171 -9.09787,-5.122875 -8.9644,-5.055827 -9.61048,-4.827709 -1.32128,0.466512 -11.82077,6.818057 -11.82077,7.150835 0,0.379127 -1.74153,0.506835 -1.89618,0.139048 -0.10633,-0.252875 -7.70092,-4.801539 -10.68204,-6.397847 l -2.12717,-1.139044 -5.94262,3.586972 -5.94261,3.586972 -0.0609,7.09937 -0.0609,7.09936 2.70673,1.52877 c 1.4887,0.84082 3.71876,2.13546 4.95569,2.87698 1.23693,0.74152 2.82238,1.69066 3.52322,2.1092 1.00221,0.59852 1.38267,0.70297 1.78199,0.48926 0.49457,-0.26468 0.50954,-0.0684 0.57782,7.57469 l 0.0701,7.84642 3.83645,2.4239 c 2.11006,1.33315 4.72943,3.03063 5.82084,3.77219 1.0914,0.74155 2.14741,1.30065 2.34668,1.24243 0.19927,-0.0582 2.52099,-1.33563 5.15938,-2.8387 z m -56.898526,1.99197 c 4.06024,-2.74787 11.17553,-6.65982 12.113274,-6.65982 0.416028,0 1.383804,0.39963 2.150612,0.88806 2.25121,1.43393 10.77608,6.25569 11.06007,6.25569 0.14321,0 2.31322,-1.22939 4.82225,-2.73197 2.50904,-1.50259 5.24253,-3.11641 6.07444,-3.58626 l 1.51256,-0.85429 0.0749,-6.62303 c 0.0547,-4.83259 -0.009,-6.69273 -0.23613,-6.88086 -0.17109,-0.14181 -1.65937,-1.06645 -3.30729,-2.05477 -1.64792,-0.98831 -4.27637,-2.58842 -5.841,-3.55579 -1.56463,-0.96737 -2.96933,-1.75886 -3.12156,-1.75886 -0.15224,0 -0.89615,0.39463 -1.65314,0.87695 -0.757,0.48232 -3.41828,2.03013 -5.91396,3.43958 -6.122575,3.45776 -5.336181,3.50411 -13.01189,-0.76696 -5.751176,-3.20019 -6.009742,-3.31453 -6.652543,-2.94187 -0.367837,0.21325 -2.81192,1.54969 -5.431295,2.96988 -2.619375,1.42018 -4.997352,2.74402 -5.284393,2.94187 -0.287041,0.19784 -0.961478,0.35972 -1.498751,0.35972 -0.994542,0 -1.680144,-0.33525 -9.695145,-4.74078 -2.257799,-1.24103 -3.700425,-1.88252 -4.036098,-1.79474 -0.492139,0.12869 -0.518801,0.0116 -0.460379,-2.02175 0.03411,-1.1871 0.02123,-4.81447 -0.02861,-8.06084 l -0.09063,-5.902481 -0.962371,-0.606073 C 53.70226,92.271823 45.898021,87.973958 45.454815,87.973958 c -0.500006,0 -0.53171,-0.254259 -0.698159,-5.59891 -0.0959,-3.079401 -0.174367,-6.641627 -0.174367,-7.916057 l 0,-2.317147 -4.034896,-2.312712 C 38.328201,68.55714 35.433121,66.943015 34.113882,66.242187 l -2.398615,-1.274233 -6.001906,3.631419 -6.001905,3.63142 0.02617,5.556478 c 0.03665,7.783416 0.08745,8.082596 1.561334,9.196326 1.281788,0.968573 6.170799,3.981187 9.044427,5.573186 1.059247,0.586827 1.834737,0.872335 1.933844,0.711975 0.572433,-0.926216 0.676146,0.293148 0.655578,7.707732 -0.01217,4.38649 0.07391,8.06508 0.191285,8.17463 0.767815,0.71666 12.250145,6.85276 12.583807,6.72472 0.346331,-0.1329 0.404374,0.22848 0.404374,2.51765 0,1.47006 0.08684,5.07947 0.192967,8.02092 l 0.192967,5.34809 5.920155,3.36527 5.920155,3.36528 4.432825,-2.46759 c 2.438054,-1.35717 5.238594,-2.96084 6.223422,-3.56371 2.630472,-1.61026 2.899754,-1.56248 7.542348,1.33833 3.46496,2.16499 8.24992,4.97164 8.478759,4.97327 0.04654,3.3e-4 0.582322,-0.33623 1.190625,-0.74791 z m 138.490216,-2.82336 5.84088,-3.43958 0.22183,-3.30729 c 0.12201,-1.81901 0.21925,-5.4161 0.21609,-7.99353 -0.006,-4.6124 0.003,-4.68406 0.54345,-4.54839 0.37892,0.0951 2.22639,-0.82067 5.95887,-2.95375 2.97532,-1.70037 5.74604,-3.32924 6.15715,-3.61971 1.12847,-0.79732 2.25906,-0.49732 5.9994,1.59195 1.81901,1.01605 4.58959,2.56623 6.15685,3.44483 l 2.84956,1.59746 6.37259,-3.48287 6.37259,-3.48287 -0.16866,-6.08541 c -0.0928,-3.346983 -0.23835,-6.52417 -0.32353,-7.06042 -0.14959,-0.941779 -0.31834,-1.073301 -4.95245,-3.860067 -2.63867,-1.586787 -5.39791,-3.218074 -6.13166,-3.625082 l -1.33408,-0.740014 -5.67738,3.231595 c -3.12255,1.777377 -5.92317,3.460461 -6.22359,3.740185 -0.9391,0.874403 -2.07208,0.647649 -4.57852,-0.916344 -9.44895,-5.896028 -9.62687,-5.997741 -10.18717,-5.824021 -1.46586,0.454488 -12.41725,6.471975 -12.74569,7.003408 -0.32585,0.527234 -1.69679,0.19993 -3.18837,-0.761208 -4.44199,-2.862312 -10.64693,-6.401577 -11.22306,-6.401577 -0.37367,0 -5.04156,2.675031 -9.25702,5.304931 l -3.30729,2.063322 0.0832,6.965352 0.0832,6.96535 1.63659,0.94809 c 0.90013,0.52145 3.63572,2.11073 6.0791,3.53172 3.47705,2.02214 4.58393,2.54813 5.09323,2.42031 l 0.65072,-0.16332 v 7.7745 7.7745 l 2.18281,1.31934 c 1.20055,0.72564 3.19485,1.87147 4.43178,2.54629 1.23692,0.67483 3.08239,1.75706 4.10104,2.40496 1.01864,0.6479 1.98136,1.15526 2.13937,1.12747 0.15801,-0.0278 2.91569,-1.59834 6.12817,-3.49011 z m 106.21222,0.61512 c 2.81155,-1.62622 5.55741,-3.20379 6.10191,-3.50573 l 0.99001,-0.54897 -0.002,-6.74688 c -0.001,-3.71078 -0.0894,-6.87041 -0.19626,-7.02139 -0.10691,-0.15099 -2.33751,-1.53466 -4.95688,-3.07482 -7.13996,-4.19821 -7.17141,-4.21483 -7.63843,-4.03562 -0.39288,0.15076 -0.43167,-0.55105 -0.43478,-7.86642 l -0.003,-8.031954 -1.91481,-1.235203 c -1.05315,-0.679362 -3.10544,-1.883572 -4.56065,-2.676023 -1.45521,-0.79245 -3.39723,-1.883672 -4.3156,-2.424939 -0.91837,-0.541266 -1.81134,-0.926597 -1.98437,-0.856292 -0.29962,0.121737 -9.12352,5.212909 -11.49326,6.631327 l -1.12448,0.673061 -0.0341,6.690913 c -0.0188,3.68 -0.007,7.26823 0.0263,7.97384 0.0565,1.19913 0.0237,1.27127 -0.50204,1.10442 -0.61016,-0.19366 -1.38895,0.1962 -9.03592,4.52325 -2.41256,1.36516 -4.67475,2.48161 -5.02708,2.48101 -0.35234,-6e-4 -2.78373,-1.23699 -5.40311,-2.74752 -2.61937,-1.51054 -5.37736,-3.10114 -6.12886,-3.53468 l -1.36636,-0.78824 -3.13156,1.6334 c -5.43492,2.83481 -7.86787,4.17624 -8.73629,4.81684 -1.09784,0.80983 -1.73297,0.78361 -3.07884,-0.12712 -1.1675,-0.79003 -3.97921,-2.40739 -8.7573,-5.03738 -2.85977,-1.57409 -2.897,-1.58587 -3.70417,-1.17184 -1.51452,0.77686 -10.07023,5.69434 -10.77189,6.19125 -0.82435,0.5838 -0.92005,1.35916 -1.17225,9.49763 l -0.15988,5.15938 6.34543,3.37344 c 3.48998,1.85539 6.42212,3.37343 6.51586,3.37343 0.23663,0 5.75387,-3.14345 9.35339,-5.32909 1.66295,-1.00975 3.29321,-1.81466 3.67544,-1.81466 0.62766,0 4.94855,2.34484 10.66624,5.78831 1.23693,0.74494 2.3697,1.35466 2.51727,1.35494 0.14757,2.8e-4 1.93351,-0.96545 3.96875,-2.14606 5.84314,-3.3895 8.90631,-4.99719 9.52127,-4.99719 0.59526,0 3.97927,1.74249 8.46667,4.35965 1.45521,0.84871 3.1519,1.83254 3.77043,2.18629 l 1.12459,0.64318 6.28374,-3.52012 c 3.45606,-1.93607 6.32343,-3.61315 6.37193,-3.72685 0.17848,-0.41835 1.6858,-0.19883 2.11836,0.30851 0.2416,0.28338 2.46334,1.63703 4.9372,3.00812 2.47385,1.37109 5.09323,2.8565 5.82083,3.30092 0.72761,0.44441 1.46334,0.81716 1.63497,0.82833 0.17163,0.0112 2.61241,-1.31023 5.42396,-2.93645 z m -40.7933,-22.53813 c 0.80036,-0.44259 2.76489,-1.52901 4.36562,-2.41428 l 2.91042,-1.60957 0.21301,-4.35678 c 0.11716,-2.39622 0.15589,-6.112946 0.0861,-8.259378 -0.0698,-2.146432 -0.0748,-3.902604 -0.011,-3.902604 0.0638,0 0.32659,0.131542 0.58402,0.292315 0.38591,0.241002 1.2329,-0.137785 4.82506,-2.15785 5.93616,-3.33822 5.82611,-3.275503 6.87053,-3.915251 0.66091,-0.404833 1.35795,-0.567519 2.43461,-0.568225 1.39127,-9.12e-4 1.7616,0.145944 4.7625,1.888606 1.78966,1.039277 3.73018,2.209351 4.31226,2.600165 0.58209,0.390813 1.73344,1.09161 2.55858,1.557326 l 1.50024,0.846757 1.0133,-0.563945 c 0.55731,-0.31017 3.44163,-2.004124 6.4096,-3.764341 l 5.39629,-3.200396 -0.17077,-3.560872 c -0.0939,-1.95848 -0.17078,-5.016653 -0.17078,-6.795941 v -3.235068 l -6.11799,-3.646362 c -3.36489,-2.005499 -6.25216,-3.645801 -6.41614,-3.645115 -0.16399,6.85e-4 -3.13854,1.627873 -6.61011,3.615972 -3.80731,2.180368 -6.58952,3.612391 -7.01146,3.608842 -0.38473,-0.0032 -0.99716,-0.238713 -1.36097,-0.523283 -0.3638,-0.28457 -0.73813,-0.520048 -0.83185,-0.523284 -0.0937,-0.0032 -1.58199,-0.844666 -3.30729,-1.869846 -1.72529,-1.02518 -4.23793,-2.424164 -5.58364,-3.108854 l -2.44674,-1.244891 -1.78659,0.92096 c -0.98263,0.506527 -3.81066,2.143331 -6.28451,3.637341 -5.83616,3.524573 -5.40666,3.51284 -10.62285,0.290198 -2.16108,-1.335149 -4.91291,-2.997413 -6.11517,-3.69392 l -2.18594,-1.266377 -5.9075,3.69392 c -3.91905,2.450552 -6.15554,3.69392 -6.6444,3.69392 -0.46076,0 -3.11089,-1.353504 -7.07238,-3.612092 l -6.33549,-3.612091 -0.84147,0.427871 c -2.40085,1.220789 -11.04821,6.480522 -11.55709,7.029571 -0.33559,0.362071 -0.38413,1.449698 -0.31431,7.042782 l 0.0826,6.614583 2.03409,1.219644 c 1.11875,0.670804 3.28425,1.989182 4.81222,2.929729 1.52797,0.940546 3.39794,2.044875 4.1555,2.454065 l 1.37737,0.74398 2.85596,-1.672959 c 9.23502,-5.409671 8.97387,-5.277584 10.43433,-5.277584 0.99793,0 1.70127,0.189799 2.58484,0.697536 0.66763,0.383644 3.32771,1.939329 5.91129,3.457077 3.14165,1.845598 4.8585,2.708412 5.18382,2.60516 0.46081,-0.146254 0.49613,0.217064 0.67094,6.901599 0.25541,9.76702 0.12833,9.17366 2.21988,10.3647 0.94367,0.53738 3.51616,2.06768 5.71665,3.40067 l 4.00088,2.42361 1.98437,-1.07652 c 1.09141,-0.59209 2.63922,-1.43864 3.43959,-1.88122 z m -189.13132,1.0616 c 1.64831,-0.92352 4.52761,-2.55243 6.39842,-3.6198 l 3.40149,-1.94067 -0.0942,-7.8559 c -0.0739,-6.16516 -0.0237,-7.828857 0.23327,-7.730235 0.36053,0.138361 0.59754,0.0087 7.94076,-4.343402 l 5.09323,-3.018618 v -6.728152 c 0,-6.691215 -0.003,-6.730186 -0.59531,-7.098521 -0.32742,-0.203703 -2.0836,-1.315534 -3.90261,-2.470736 -4.91358,-3.120479 -8.11592,-4.860466 -8.60205,-4.673918 -0.38417,0.147417 -0.40589,-0.53872 -0.23679,-7.479516 0.1675,-6.87553 0.14304,-7.677613 -0.24391,-7.998757 -0.62318,-0.517191 -7.35944,-4.820442 -9.8057,-6.264065 -1.936952,-1.143063 -2.136886,-1.206215 -2.773836,-0.876158 -2.31213,1.198108 -8.086006,4.405104 -9.941444,5.521796 -3.197005,1.924112 -3.778953,1.877583 -7.915195,-0.632846 -1.766204,-1.071971 -4.338935,-2.679315 -5.717181,-3.571875 -1.378245,-0.892561 -2.576401,-1.622838 -2.662569,-1.622838 -0.08617,0 -2.113669,1.166006 -4.505558,2.591124 -2.391889,1.425117 -5.167983,3.062227 -6.169098,3.63802 l -1.820208,1.046898 0.165595,3.704166 c 0.09108,2.037292 0.16603,5.156963 0.166562,6.932602 l 9.68e-4,3.228435 1.124479,0.76682 c 0.618464,0.421751 2.612761,1.60191 4.431771,2.622575 1.819011,1.020666 4.071669,2.293633 5.005907,2.828817 0.934238,0.535184 1.856973,0.912294 2.050521,0.838023 0.288067,-0.110542 0.351906,1.325271 0.351906,7.914777 v 8.049817 l 1.918229,1.106597 c 1.055026,0.608628 3.809998,2.227617 6.122159,3.597754 2.312162,1.370136 4.352844,2.434013 4.53485,2.364171 0.255361,-0.09799 0.368124,1.152312 0.493866,5.475896 0.08962,3.081589 0.233071,6.688009 0.318778,8.014289 l 0.155832,2.4114 2.157831,1.20792 c 1.186806,0.66436 3.824705,2.22438 5.861997,3.46671 2.037292,1.24233 3.784293,2.26278 3.882225,2.26765 0.09793,0.005 1.526682,-0.74673 3.175003,-1.67025 z m 80.55198,-0.0855 c 1.58306,-0.97052 3.77126,-2.27566 4.86267,-2.90031 1.0914,-0.62465 2.50407,-1.44327 3.13926,-1.81915 l 1.15489,-0.68341 -0.10172,-8.04987 c -0.0657,-5.197931 -0.0108,-7.958997 0.1548,-7.793357 0.43908,0.439086 0.76624,0.307747 3.87463,-1.555483 7.81461,-4.68423 10.83232,-6.140528 11.13682,-5.374442 0.0485,0.122038 1.99319,1.269924 4.32153,2.550858 2.32833,1.280935 5.04095,2.848116 6.02805,3.482625 1.65109,1.061328 1.84166,1.123688 2.38125,0.77923 1.11044,-0.708868 8.52745,-4.800279 10.60581,-5.85043 l 2.08177,-1.051878 -0.17808,-7.871354 c -0.0979,-4.329244 -0.0763,-7.871354 0.0481,-7.871354 0.12441,0 0.33931,0.107281 0.47756,0.238402 0.25614,0.242948 3.84467,-1.745208 9.59495,-5.315909 l 2.99361,-1.858909 -0.0568,-6.876796 -0.0568,-6.876796 -1.17001,-0.849076 c -0.64351,-0.466992 -3.32743,-2.201159 -5.96428,-3.853703 l -4.79426,-3.004627 -1.86736,1.010588 c -2.8783,1.557696 -7.21904,4.046424 -9.34184,5.356075 l -1.91823,1.18344 -9.7e-4,4.00751 c -0.001,5.316314 -0.29662,11.558968 -0.53973,11.408714 -0.10707,-0.06617 -2.49976,1.280834 -5.31709,2.99335 -7.27015,4.419166 -7.51738,4.554404 -8.32601,4.554404 -0.46732,0 -2.92761,-1.326716 -6.86908,-3.704167 -3.37754,-2.037291 -6.28737,-3.704166 -6.46628,-3.704166 -0.46656,0 -4.01423,1.913117 -8.53032,4.600062 l -3.90261,2.321935 v 8.057685 8.057685 l -0.56223,-0.300901 c -0.43187,-0.231128 -0.72329,-0.218114 -1.25678,0.05612 -1.04692,0.538175 -7.29548,4.330947 -9.62421,5.841741 l -2.05053,1.330298 v 6.950371 6.95037 l 1.25678,0.66517 c 0.69122,0.36584 3.51895,1.97529 6.28385,3.57655 2.7649,1.60127 5.1606,2.92176 5.32379,2.93444 0.16319,0.0127 1.59194,-0.77101 3.175,-1.74154 z M 75.175259,114.13447 c 1.582252,-0.8914 4.293639,-2.40376 6.025302,-3.36079 l 3.14848,-1.74006 -0.171108,-4.51056 c -0.09411,-2.48081 -0.171472,-5.644371 -0.171917,-7.030139 l -8.09e-4,-2.519578 -6.179064,-3.638509 c -4.002112,-2.356624 -6.331141,-3.580153 -6.610721,-3.472868 -0.392489,0.150612 -0.43801,-0.574328 -0.501666,-7.989298 l -0.07001,-8.154941 -2.71402,-1.595322 c -7.632891,-4.48667 -9.390587,-5.415045 -9.819197,-5.186272 -0.394264,0.210441 -0.437466,-0.555701 -0.502288,-8.907533 -0.06183,-7.966743 -0.02165,-9.096887 0.313542,-8.818701 0.312448,0.259308 0.970023,-0.02443 3.510505,-1.514731 1.719323,-1.008594 4.330424,-2.502754 5.802447,-3.320354 4.100887,-2.277742 3.716732,-1.2933 3.597346,-9.218626 l -0.102372,-6.795896 -1.49819,-0.908836 c -0.824004,-0.49986 -3.564065,-2.161573 -6.089025,-3.692696 l -4.590834,-2.783861 -1.759166,1.00182 c -0.96754,0.551001 -3.783227,2.191423 -6.257082,3.645383 l -4.497916,2.643563 0.03461,1.948418 c 0.09305,5.238259 -0.239204,13.942628 -0.527993,13.832322 -0.298139,-0.113877 -8.768017,4.499786 -11.676878,6.360562 l -1.517312,0.970613 0.192867,6.928918 c 0.106077,3.810906 0.240927,7.009992 0.299668,7.10908 0.05874,0.09909 1.908812,1.170652 4.111271,2.38125 2.202458,1.210599 4.909186,2.705603 6.014951,3.322231 1.105765,0.616628 2.218841,1.122644 2.473502,1.124479 0.337337,0.0024 0.463021,0.218795 0.463021,0.797087 0,0.436563 0.0893,0.793477 0.198438,0.793143 0.10914,-3.34e-4 0.157404,1.100994 0.107253,2.447395 -0.05015,1.346402 -0.0085,4.594453 0.09251,7.217892 l 0.183697,4.769888 4.669988,2.607924 c 2.568493,1.434358 5.36313,3.008612 6.210304,3.498341 0.847175,0.489729 1.650847,0.890417 1.785938,0.890417 0.141085,0 0.24562,1.840195 0.24562,4.323791 0,2.378085 0.07745,5.938774 0.172119,7.912654 l 0.172119,3.58886 5.847152,3.30736 c 3.215934,1.81905 6.040863,3.31852 6.277621,3.33214 0.236758,0.0136 1.725039,-0.70455 3.307292,-1.59596 z M 139.11523,92.438519 c 0.61266,-0.309388 2.60222,-1.427548 4.42123,-2.484802 1.81901,-1.057253 4.09498,-2.310075 5.05772,-2.784049 l 1.75044,-0.861771 0.16779,-1.985014 c 0.0923,-1.091758 0.1678,-4.739947 0.1678,-8.107087 v -6.122073 l 0.61973,0.01043 c 0.34086,0.0057 3.25223,-1.537383 6.46973,-3.429154 l 5.85,-3.439583 0.0126,-7.181588 c 0.0112,-6.409472 -0.0339,-7.19943 -0.4199,-7.34754 -0.23786,-0.09127 -2.58934,-1.455492 -5.22552,-3.031596 -2.63618,-1.576103 -5.16303,-3.056249 -5.61521,-3.289213 l -0.82215,-0.423569 -4.46952,2.659214 c -6.96587,4.144463 -8.50902,4.988251 -9.1227,4.988251 -0.46091,0 -5.8256,-3.164994 -11.93789,-7.042977 -0.53936,-0.342201 -1.16443,-0.551659 -1.38906,-0.465462 -0.36257,0.139131 -0.40841,-0.735319 -0.40841,-7.79107 v -7.947791 l -0.7276,-0.506747 c -0.86881,-0.605087 -9.50943,-5.564018 -11.11388,-6.378354 -1.29596,-0.657762 -1.33239,-0.646385 -4.50777,1.407724 -0.97609,0.631419 -3.36712,2.11403 -5.31341,3.29469 -4.84884,2.941402 -4.439636,2.976641 -10.636079,-0.915926 -2.681369,-1.68442 -5.304199,-3.303852 -5.828512,-3.598738 l -0.953295,-0.536156 -4.735246,2.574086 c -2.604386,1.415748 -5.479387,2.981475 -6.388892,3.479395 l -1.653646,0.905308 8.09e-4,2.69903 c 4.45e-4,1.484466 0.0788,4.755111 0.174126,7.268099 l 0.173317,4.56907 5.897563,3.55848 5.897563,3.558481 2.857999,-1.683347 c 1.571899,-0.925841 4.523236,-2.588942 6.558527,-3.69578 4.121941,-2.241605 4.932052,-2.414554 6.471706,-1.381626 3.82789,2.568064 10.88905,6.750593 11.19712,6.632376 0.45333,-0.173959 0.72058,3.965036 0.72228,11.186128 l 0.001,4.558685 1.11441,0.568528 c 0.61292,0.31269 3.37013,1.930651 6.12712,3.595468 3.85232,2.326233 5.15618,2.990932 5.63247,2.871392 l 0.61975,-0.155548 v 8.030141 8.030142 l 1.52136,0.862006 c 0.83674,0.474103 3.48588,1.975284 5.88698,3.335958 2.40109,1.360674 4.45966,2.481163 4.5746,2.489976 0.11494,0.0088 0.71025,-0.237111 1.32292,-0.546498 z m 30.05174,-2.042942 c 2.41983,-1.433006 5.18813,-3.037658 6.15178,-3.565893 l 1.75209,-0.960428 0.19274,-6.048396 c 0.10602,-3.326618 0.10671,-6.966635 0.002,-8.088926 l -0.19121,-2.04053 0.66867,0.167827 c 0.51766,0.129925 1.26115,-0.180802 3.29218,-1.375911 1.44293,-0.849055 4.18784,-2.436705 6.0998,-3.528111 l 3.47629,-1.984375 0.0107,-4.549651 c 0.006,-2.502308 -0.1179,-6.054705 -0.2751,-7.894215 -0.1572,-1.839511 -0.22693,-3.403455 -0.15495,-3.475432 0.072,-0.07198 0.36372,-0.0062 0.64832,0.146066 0.41873,0.224099 0.8395,0.08544 2.20547,-0.726773 0.92841,-0.552038 3.80138,-2.227708 6.38438,-3.723711 l 4.69635,-2.720007 v -2.442652 c 0,-1.343459 -0.0774,-4.404924 -0.17198,-6.803256 l -0.17197,-4.360604 -1.39282,-0.97332 c -0.76604,-0.535325 -1.44577,-0.973319 -1.5105,-0.973319 -0.0647,0 -2.18831,-1.205662 -4.71907,-2.679248 l -4.60137,-2.679248 -1.5875,0.825923 c -0.87312,0.454258 -3.78696,2.076639 -6.47518,3.60529 -2.73001,1.552409 -5.18283,2.775956 -5.55625,2.771641 -0.74921,-0.0087 -2.93959,-1.142472 -9.10982,-4.715544 l -4.20792,-2.436732 -2.80354,1.692995 c -6.61917,3.99717 -9.41111,5.467006 -10.3845,5.467006 -0.49796,0 -2.87224,-1.237349 -6.89281,-3.592151 -3.37326,-1.975683 -6.31866,-3.605465 -6.54534,-3.621737 -0.40186,-0.02885 -10.3664,5.785359 -11.39337,6.647919 -0.47519,0.399112 -0.52363,0.865989 -0.60766,5.857636 -0.0502,2.983177 -0.0439,6.200429 0.014,7.14945 l 0.10532,1.725492 2.2952,1.425685 c 4.91418,3.052479 9.18914,5.647227 9.50204,5.767387 0.30683,0.117833 2.06969,-0.875925 10.0457,-5.662987 1.7763,-1.066099 3.45728,-1.938361 3.73552,-1.938361 0.27824,0 2.15866,0.987746 4.17871,2.194992 6.9981,4.182282 8.51945,4.999696 9.0138,4.843076 0.45594,-0.144448 0.4839,0.297297 0.56109,8.862988 0.0799,8.866365 0.0726,9.012286 -0.43984,8.849633 -0.37436,-0.118818 -2.11052,0.781828 -6.16665,3.198988 -3.10507,1.850401 -5.85394,3.540441 -6.1086,3.755643 -0.41917,0.354218 -0.46302,1.045806 -0.46302,7.302007 v 6.91073 l 5.35781,3.010945 c 2.9468,1.656019 5.715,3.2287 6.15156,3.494846 0.43657,0.266147 0.83795,0.485908 0.89197,0.48836 0.054,0.0025 2.07808,-1.168002 4.49792,-2.601007 z M 289.56185,67.749073 c 1.97806,-1.191627 4.63828,-2.734091 5.91159,-3.427698 1.27331,-0.693607 2.3151,-1.370524 2.3151,-1.50426 0,-0.133736 0.35719,-0.243156 0.79375,-0.243156 0.45641,0 0.79551,0.14056 0.79789,0.330729 0.002,0.181901 2.41329,1.672553 5.35781,3.312559 2.94452,1.640007 5.78452,3.241642 6.31111,3.559189 l 0.95743,0.577358 6.39442,-3.648077 6.39443,-3.648078 -0.13457,-1.763194 c -0.074,-0.969757 -0.20808,-4.600654 -0.29792,-8.06866 l -0.16336,-6.305466 0.61899,0.396454 c 0.5929,0.379747 0.88102,0.238174 6.83669,-3.359342 l 6.21771,-3.755797 v -6.971439 -6.971439 l -3.83646,-2.245722 c -2.11005,-1.235147 -4.83504,-2.822507 -6.05554,-3.527466 l -2.21908,-1.281744 -2.27883,1.229139 c -1.25336,0.676026 -4.16837,2.278526 -6.47779,3.561109 -2.90289,1.612176 -4.46818,2.331971 -5.07118,2.331971 -0.47973,0 -0.91192,-0.102016 -0.96043,-0.226703 -0.0914,-0.23482 -8.29678,-4.991902 -10.72887,-6.220048 -0.75915,-0.383349 -1.52005,-0.696999 -1.69088,-0.696999 -0.29055,0 -9.46203,5.124699 -11.70492,6.540297 l -1.01773,0.642338 0.16355,5.999828 c 0.09,3.299906 0.23207,6.992466 0.3158,8.205689 l 0.15224,2.20586 -0.5883,-0.314852 c -0.4521,-0.241957 -0.74902,-0.242807 -1.28245,-0.0037 -0.99168,0.444573 -10.62703,6.029742 -11.3658,6.588239 -0.61677,0.466257 -0.61756,0.475042 -0.66146,7.286032 l -0.044,6.819212 5.68855,3.541336 c 3.12869,1.947735 5.86713,3.651949 6.08541,3.787142 0.26596,0.164719 0.60696,0.112223 1.03372,-0.159135 0.35027,-0.222717 2.25527,-1.379909 4.23334,-2.571536 z m -78.19628,-0.937925 6.0448,-3.56802 -0.0937,-8.007514 c -0.0516,-4.404133 -0.0282,-8.007509 0.0518,-8.007501 0.08,7e-6 0.27817,0.132668 0.44031,0.294802 0.21666,0.216664 0.98448,-0.121944 2.89719,-1.277657 1.43131,-0.864846 4.24172,-2.500738 6.24534,-3.635317 2.00362,-1.134579 3.70729,-2.166977 3.78593,-2.294218 0.0786,-0.127241 0.50386,-0.231347 0.94494,-0.231347 0.84456,0 3.34224,1.429879 9.60856,5.500738 2.86315,1.86002 3.50838,2.179691 3.9026,1.933493 0.44588,-0.278453 0.47407,-0.04675 0.50357,4.139047 0.0172,2.438708 0.10649,6.034462 0.19844,7.990566 l 0.16718,3.556553 4.36563,2.483271 c 2.40109,1.365799 5.28413,3.008935 6.40674,3.651413 l 2.04113,1.168143 4.04429,-2.59174 c 2.22436,-1.425458 4.83681,-3.120843 5.80544,-3.767523 l 1.76114,-1.175782 0.19354,-4.101902 c 0.10645,-2.256046 0.12549,-5.796127 0.0423,-7.866845 l -0.15124,-3.764943 0.57781,0.378595 c 0.53352,0.349576 0.72991,0.280854 2.56218,-0.896557 1.09141,-0.701333 3.94891,-2.400511 6.35,-3.775949 l 4.36563,-2.500798 -0.0923,-6.992911 c -0.0807,-6.113117 -0.14728,-7.036508 -0.52917,-7.339444 -0.38351,-0.30422 -8.90593,-5.626667 -11.4262,-7.135928 l -0.93519,-0.560035 -4.01981,2.473163 c -3.98955,2.454553 -6.79735,4.349434 -7.76246,5.238605 -0.5209,0.479916 -2.09006,0.646283 -2.09006,0.221594 0,-0.254118 -2.74647,-1.886409 -6.08542,-3.616703 -1.09141,-0.565584 -3.04811,-1.654272 -4.34823,-2.419307 l -2.36385,-1.390973 -1.4726,0.823575 c -3.57889,2.001538 -8.23426,4.845334 -9.49908,5.802639 -2.19822,1.663774 -2.38855,1.613673 -9.13466,-2.404572 -3.18122,-1.894861 -6.00686,-3.564451 -6.2792,-3.7102 -0.55397,-0.296477 -1.51866,0.128692 -5.09411,2.245124 -1.14186,0.675905 -3.37733,1.881504 -4.96771,2.67911 l -2.8916,1.450192 0.17259,8.394916 c 0.14328,6.969554 0.11299,8.338763 -0.17844,8.064187 -0.77732,-0.732367 -0.88443,-0.680712 -8.80286,4.245108 l -4.7212,2.936922 0.17284,6.231641 c 0.0951,3.427403 0.22957,6.529298 0.29892,6.8931 0.10141,0.532009 1.27632,1.370794 6.00357,4.286026 3.23262,1.993513 6.11654,3.600856 6.40871,3.571875 0.29217,-0.02898 3.25138,-1.658302 6.57602,-3.620712 z"
     id="path7" /></svg>
